<svg width="88" height="38" viewBox="0 0 88 38" fill="none" xmlns="http://www.w3.org/2000/svg">
<path d="M15.5745 33.8694C15.6964 33.8694 16.7236 33.7388 17.5419 33.7388C18.3775 33.7388 19.5266 33.8694 19.6485 33.8694C19.84 33.8476 20.2056 33.717 20.2056 33.4993C20.2056 33.1727 19.6311 33.0639 19.248 32.8462C18.6561 32.5196 18.4298 32.0842 18.4298 31.2569L18.4124 28.2743C18.4089 27.8607 18.4994 27.7518 18.8302 27.7518H20.519C20.8846 27.7518 21.0064 27.9695 21.1283 28.209C21.2328 28.4267 21.4591 29.0363 21.6854 29.0363C21.8595 29.0363 21.9118 28.688 21.9118 28.4702C21.9118 28.2308 21.8943 27.5559 21.8943 27.2293C21.8943 26.9028 21.964 26.1408 21.964 25.9666C21.964 25.7054 21.9292 25.5312 21.7725 25.5312C21.581 25.5312 21.4243 25.8578 21.2328 26.0755C20.9194 26.4456 20.7279 26.6851 20.1708 26.6851H18.8128C18.569 26.6851 18.4124 26.5327 18.4124 26.0102L18.4298 22.418C18.4298 22.135 18.4994 21.9608 18.9695 21.9608H20.902C21.7377 21.9608 22.1729 22.3091 22.3122 22.6792C22.4689 23.1147 22.73 23.5065 22.9389 23.5065C23.1479 23.5065 23.2175 23.2017 23.2175 22.9405C23.2175 22.701 23.1305 21.5036 23.0608 21.1553C23.026 20.9594 22.8867 20.8505 22.6082 20.8505C22.2948 20.8505 21.2676 20.9594 20.5364 20.9594H15.679C15.3134 20.9594 15.0696 21.09 15.0696 21.3512C15.0696 21.5472 15.1915 21.656 15.3482 21.7213C16.3406 22.0697 16.7758 22.0914 16.7758 23.3324V31.2787C16.7758 32.0842 16.5495 32.5196 15.9575 32.8462C15.5745 33.0639 15 33.1727 15 33.4993C15 33.717 15.383 33.8476 15.5745 33.8694ZM25.1152 28.6662C25.1152 27.0987 25.7768 25.3788 27.0303 25.3788C28.545 25.3788 29.3458 27.4688 29.3458 29.4064C29.3458 31.0174 28.8061 32.9768 27.5178 32.9768C25.8986 32.9768 25.1152 30.7126 25.1152 28.6662ZM27.1522 24.4644C25.2719 24.4644 23.3742 26.5327 23.3742 29.1451C23.3742 31.7358 24.9411 34 27.0651 34C29.2936 34 31.0694 31.627 31.0694 28.8186C31.0694 26.2932 29.1717 24.4644 27.1522 24.4644ZM33.8898 33.7388C34.1684 33.7388 35.1956 33.8694 35.5786 33.8694C36.0312 33.8694 36.1705 33.6517 36.1705 33.434C36.1705 33.2163 35.9268 33.0421 35.4567 32.8679C34.9866 32.6938 34.6036 32.0189 34.6036 31.4746L34.6384 27.2293C34.6384 26.6633 35.1433 26.2061 35.5438 26.2061C35.892 26.2061 36.4143 26.8157 36.6754 26.8157C36.7625 26.8157 36.9017 26.6851 36.954 26.6197C37.2325 26.2714 37.4763 25.7054 37.4763 25.3788C37.4763 24.8781 37.1977 24.4644 36.4839 24.4644C35.9616 24.4644 35.2304 24.9434 34.9518 25.3135C34.8648 25.4441 34.6036 25.7707 34.6036 25.4441V24.8999C34.6036 24.4862 34.6036 24.2903 34.3947 24.2903C34.2206 24.2903 32.7756 25.0087 32.5841 25.1393C32.3577 25.27 32.0792 25.4441 32.0792 25.6836C32.0792 25.9231 32.2533 26.0537 32.4448 26.1408C32.8626 26.3367 33.1586 26.881 33.1586 27.2511V31.4746C33.1586 32.0189 32.9671 32.6938 32.497 32.8679C32.0269 33.0421 31.818 33.2163 31.818 33.434C31.818 33.6517 31.8877 33.8694 32.3403 33.8694C32.7233 33.8694 33.559 33.7388 33.8898 33.7388ZM45.1889 25.9013C45.1541 25.9013 45.1192 25.8795 45.067 25.7925C44.7014 25.0522 44.0398 24.4644 43.2738 24.4644C42.3685 24.4644 41.6895 24.7257 41.115 25.3135C40.9757 25.4659 40.7668 25.7707 40.7668 25.4441V24.8999C40.7668 24.4862 40.7668 24.2903 40.5578 24.2903C40.3837 24.2903 38.9387 25.0087 38.7472 25.1393C38.5209 25.27 38.2423 25.4441 38.2423 25.6836C38.2423 25.9231 38.4164 26.0537 38.6079 26.1408C39.0258 26.3367 39.3217 26.881 39.3217 27.2511V31.4746C39.3217 32.0189 39.1302 32.6938 38.6601 32.8679C38.1901 33.0421 37.9812 33.2163 37.9812 33.434C37.9812 33.6517 38.0508 33.8694 38.5035 33.8694C38.8865 33.8694 39.7047 33.7388 40.0529 33.7388C40.3315 33.7388 40.9409 33.8694 41.3239 33.8694C41.7765 33.8694 41.8288 33.6517 41.8288 33.434C41.8288 33.2163 41.6373 33.0421 41.1672 32.8679C40.8364 32.7373 40.7668 32.0189 40.7668 31.4746L40.7842 27.9913C40.7842 26.3367 41.4806 25.5965 42.4903 25.5965C43.3957 25.5965 44.005 26.8592 44.005 28.1437V31.4746C44.005 32.0189 43.918 32.7591 43.6046 32.8679C43.1345 33.0421 42.9256 33.2163 42.9256 33.434C42.9256 33.6517 42.9952 33.8694 43.4479 33.8694C43.8309 33.8694 44.4054 33.7388 44.7362 33.7388C45.0148 33.7388 45.6241 33.8694 46.0072 33.8694C46.4598 33.8694 46.512 33.6517 46.512 33.434C46.512 33.2163 46.3205 33.0421 45.8505 32.8679C45.5197 32.7373 45.45 32.0189 45.45 31.4746V27.9913C45.45 26.4456 46.1464 25.5965 47.1736 25.5965C48.0789 25.5965 48.6883 26.8592 48.6883 28.1437V31.4746C48.6883 32.0189 48.6012 32.7591 48.2879 32.8679C47.8178 33.0421 47.6089 33.2163 47.6089 33.434C47.6089 33.6517 47.6785 33.8694 48.1312 33.8694C48.5142 33.8694 49.0713 33.7388 49.4195 33.7388C49.6981 33.7388 50.5686 33.8694 50.9516 33.8694C51.4042 33.8694 51.4217 33.6517 51.4217 33.434C51.4217 33.2163 51.265 33.0421 50.7949 32.8679C50.3248 32.6938 50.1333 31.9971 50.1333 31.4311V27.4906C50.1333 25.9013 49.1758 24.4644 47.9571 24.4644C47.0518 24.4644 46.3728 24.7257 45.7982 25.3135C45.4674 25.6618 45.2759 25.9013 45.1889 25.9013ZM59.0995 22.2003C59.0995 21.8737 59.3432 21.6996 59.97 21.6996C61.1364 21.6996 62.1636 22.7663 62.1636 24.225C62.1636 25.357 61.7806 26.1408 61.1016 26.8592C60.6141 27.3817 60.353 27.4253 60.353 27.643C60.353 27.9042 60.4748 28.0131 60.6663 28.0131C60.8579 28.0131 61.1364 28.0131 61.7806 27.5776C62.9993 26.7504 63.9046 25.6836 63.9046 23.8984C63.9046 21.6996 61.9547 20.7417 60.1963 20.7417C58.6468 20.7417 57.933 20.807 56.4009 20.9594C56.0353 20.9811 55.7916 21.09 55.7916 21.3512C55.7916 21.5472 55.9134 21.656 56.0701 21.7213C57.0625 22.0697 57.4977 22.0914 57.4977 23.3324V31.2787C57.4977 32.0842 57.2714 32.5196 56.6795 32.8462C56.2964 33.0639 55.7219 33.1727 55.7219 33.4993C55.7219 33.717 56.1049 33.8476 56.2964 33.8694C56.4183 33.8694 57.4629 33.7388 58.2115 33.7388C59.0472 33.7388 60.1963 33.8694 60.3181 33.8694C60.5097 33.8476 60.8753 33.717 60.8753 33.4993C60.8753 33.1727 60.3007 33.0639 59.9177 32.8462C59.3258 32.5196 59.0995 32.0842 59.0995 31.2787V22.2003ZM67.0036 19.7837C66.4813 19.7837 66.046 20.3062 66.046 20.9594C66.046 21.6343 66.4639 22.1785 67.0036 22.1785C67.5433 22.1785 67.9611 21.6343 67.9611 20.9594C67.9611 20.3062 67.5259 19.7837 67.0036 19.7837ZM66.3768 27.2511V31.4746C66.3768 32.0189 66.1853 32.6938 65.7152 32.8679C65.2452 33.0421 64.9492 33.2163 64.9492 33.434C64.9492 33.6517 65.1059 33.8694 65.5586 33.8694C65.9416 33.8694 66.7598 33.7388 67.108 33.7388C67.3866 33.7388 68.2571 33.8694 68.6401 33.8694C69.0928 33.8694 69.2321 33.6517 69.2321 33.434C69.2321 33.2163 68.9535 33.0421 68.4834 32.8679C68.0134 32.6938 67.8218 32.0189 67.8218 31.4746V24.9216C67.8218 24.4862 67.8218 24.2903 67.6129 24.2903C67.4388 24.2903 65.9938 25.0087 65.8023 25.1393C65.576 25.27 65.2974 25.4441 65.2974 25.6836C65.2974 25.9231 65.4715 26.0537 65.663 26.1408C66.0808 26.3367 66.3768 26.881 66.3768 27.2511ZM71.182 21.4819V31.4746C71.182 32.0189 70.9905 32.6938 70.5204 32.8679C70.0503 33.0421 69.7544 33.2163 69.7544 33.434C69.7544 33.6517 69.911 33.8694 70.3637 33.8694C70.7467 33.8694 71.565 33.7388 71.9132 33.7388C72.1917 33.7388 73.0622 33.8694 73.4453 33.8694C73.8979 33.8694 74.0372 33.6517 74.0372 33.434C74.0372 33.2163 73.7586 33.0421 73.2886 32.8679C72.8185 32.6938 72.627 32.0189 72.627 31.4746V19.5878C72.627 19.1742 72.627 19 72.4181 19C72.244 19 71.3038 19.3701 70.6074 19.5225C70.3637 19.566 70.1026 19.7402 70.1026 19.9797C70.1026 20.2192 70.3115 20.3933 70.503 20.4804C70.9208 20.6763 71.182 21.1118 71.182 21.4819ZM76.4224 28.6662C76.4224 27.0987 77.0839 25.3788 78.3375 25.3788C79.8521 25.3788 80.653 27.4688 80.653 29.4064C80.653 31.0174 80.1133 32.9768 78.8249 32.9768C77.2058 32.9768 76.4224 30.7126 76.4224 28.6662ZM78.4593 24.4644C76.5791 24.4644 74.6814 26.5327 74.6814 29.1451C74.6814 31.7358 76.2483 34 78.3723 34C80.6008 34 82.3766 31.627 82.3766 28.8186C82.3766 26.2932 80.4789 24.4644 78.4593 24.4644ZM86.0153 34C87.0599 34 88 32.9332 88 32.4325C88 32.2148 87.913 32.1277 87.7389 32.1277C87.5648 32.1277 87.1295 32.5196 86.4853 32.5196C85.876 32.5196 85.58 32.0406 85.58 30.5167V26.4456C85.58 26.1408 85.6497 26.0319 85.8586 26.0319H87.5822C87.8259 26.0319 88 25.4659 88 25.2482C88 25.0305 87.9304 24.7475 87.6518 24.7475H85.963C85.7367 24.7475 85.58 24.6386 85.58 24.4209V23.8113C85.58 23.4412 85.5452 23.2671 85.3363 23.2671C85.1099 23.2671 84.4484 24.0943 84.2046 24.3556C83.7694 24.8128 83.0382 25.4224 83.0382 25.7271C83.0382 25.9448 83.4386 26.0319 83.5953 26.0319C84.2394 26.0319 84.135 26.1408 84.135 26.3367V31.5181C84.135 33.3687 84.9881 34 86.0153 34Z" fill="#0077CC"/>
<path d="M53.1741 21.372L54.4051 21.324L58.0317 17.2632L60.0493 17.1888L60.0189 16.5672L58.6058 16.62L60.72 14.2536L62.7624 14.1768L62.7293 13.5576L61.2941 13.6104L63.2785 11.388C66.9024 11.208 69.7728 10.836 69.7369 10.1016H69.7507C69.7507 10.092 69.7452 10.0848 69.7424 10.0752C69.7424 10.068 69.7507 10.0584 69.7479 10.0488L69.7341 10.0512C69.7314 9.312 66.8223 9.1464 63.1709 9.24L60.9794 7.176L62.4146 7.1232L62.3843 6.5016L60.3446 6.5784L58.0041 4.3776L59.4173 4.3248L59.3869 3.7032L57.3693 3.78L53.3563 0L52.1253 0.048L58.1145 9.4872C55.763 9.6456 53.486 9.8472 51.761 10.0224L48.8685 7.3008L47.3947 7.356L49.5944 10.824L47.7425 14.4432L49.2191 14.3904L51.7748 11.5248C53.5026 11.544 55.8155 11.5608 58.2084 11.532L53.1741 21.372Z" fill="#0077CC"/>
<path d="M7.02418 29.28C5.44822 22.8456 17.8406 15.0936 34.7015 11.9688C40.6299 10.8696 46.3376 10.1352 51.2946 10.3824C43.7432 9.79443 37.2296 9.95283 28.8889 11.5008C11.3739 14.748 -1.4987 22.7976 0.140739 29.4792C1.60906 35.4672 14.225 38.3232 29.4271 36.5208C17.4901 36.9912 8.24686 34.2624 7.02418 29.28Z" fill="#0077CC"/>
<path d="M10.7447 31.404C10.7447 31.404 10.4659 15.0936 53.8007 11.5152C43.6797 10.8264 4.03234 16.476 10.7447 31.404Z" fill="#0077CC"/>
</svg>
